<svg width="249" height="70" viewBox="0 0 249 70" xmlns="http://www.w3.org/2000/svg">
<g clip-path="url(#clip0_283_234)">
<path fill-rule="evenodd" clip-rule="evenodd" d="M 25.2 27.6 C 25.4 26.2 26.7 25.1 28.1 25.2 C 29.6 25.4 30.7 26.7 30.5 28.1 C 30.4 29.6 29.1 30.7 27.6 30.5 C 26.2 30.4 25.1 29.1 25.2 27.6 Z" fill="#e96824"/>
<path fill-rule="evenodd" clip-rule="evenodd" d="M 27.6 20.9 C 27.7 19.7 28.8 18.7 30.1 18.9 C 31.3 19 32.2 20.1 32.1 21.3 C 32 22.6 30.9 23.5 29.7 23.4 C 28.4 23.3 27.5 22.1 27.6 20.9 Z" fill="#e96824"/>
<path fill-rule="evenodd" clip-rule="evenodd" d="M 31.8 16.2 C 31.9 15.1 32.8 14.3 33.9 14.4 C 35 14.5 35.8 15.5 35.7 16.5 C 35.6 17.6 34.6 18.4 33.5 18.3 C 32.5 18.2 31.7 17.2 31.8 16.2 Z" fill="#e96824"/>
<path fill-rule="evenodd" clip-rule="evenodd" d="M 37 13.5 C 37.1 12.6 37.9 11.9 38.9 11.9 C 39.8 12 40.5 12.9 40.4 13.8 C 40.4 14.8 39.5 15.5 38.6 15.4 C 37.6 15.3 36.9 14.4 37 13.5 Z" fill="#e96824"/>
<path fill-rule="evenodd" clip-rule="evenodd" d="M 42.5 13.4 C 42.6 12.5 43.3 11.9 44.2 12 C 45.1 12.1 45.7 12.8 45.6 13.7 C 45.5 14.6 44.8 15.2 43.9 15.1 C 43 15 42.4 14.3 42.5 13.4 Z" fill="#e96824"/>
<path fill-rule="evenodd" clip-rule="evenodd" d="M 47.1 15.2 C 47.2 14.4 47.9 13.9 48.6 13.9 C 49.4 14 50 14.7 49.9 15.5 C 49.9 16.3 49.2 16.8 48.4 16.8 C 47.6 16.7 47 16 47.1 15.2 Z" fill="#e96824"/>
<path fill-rule="evenodd" clip-rule="evenodd" d="M 50.5 18.2 C 50.6 17.5 51.2 17 51.9 17.1 C 52.6 17.1 53.1 17.8 53 18.5 C 53 19.2 52.4 19.7 51.7 19.6 C 51 19.5 50.5 18.9 50.5 18.2 Z" fill="#e96824"/>
<path fill-rule="evenodd" clip-rule="evenodd" d="M 52.7 21.8 C 52.7 21.2 53.3 20.8 53.8 20.8 C 54.4 20.9 54.9 21.4 54.8 22 C 54.8 22.6 54.2 23 53.6 23 C 53.1 22.9 52.6 22.4 52.7 21.8 Z" fill="#e96824"/>
<path fill-rule="evenodd" clip-rule="evenodd" d="M 53.9 25.6 C 53.9 25.1 54.4 24.7 54.9 24.8 C 55.4 24.8 55.7 25.3 55.7 25.8 C 55.6 26.3 55.2 26.6 54.7 26.6 C 54.2 26.5 53.8 26.1 53.9 25.6 Z" fill="#e96824"/>
<path fill-rule="evenodd" clip-rule="evenodd" d="M 54.2 29.1 C 54.3 28.7 54.6 28.4 55.1 28.4 C 55.5 28.5 55.8 28.8 55.8 29.3 C 55.7 29.7 55.4 30 54.9 30 C 54.5 29.9 54.2 29.6 54.2 29.1 Z" fill="#e96824"/>
<path fill-rule="evenodd" clip-rule="evenodd" d="M 53.9 32.4 C 53.9 32.1 54.3 31.8 54.6 31.8 C 55 31.9 55.3 32.2 55.2 32.6 C 55.2 32.9 54.9 33.2 54.5 33.2 C 54.2 33.1 53.9 32.8 53.9 32.4 Z" fill="#e96824"/>
<path fill-rule="evenodd" clip-rule="evenodd" d="M 53 35.4 C 53 35.1 53.3 34.8 53.6 34.9 C 53.9 34.9 54.1 35.2 54.1 35.5 C 54 35.8 53.8 36 53.5 36 C 53.2 35.9 52.9 35.7 53 35.4 Z" fill="#e96824"/>
<path fill-rule="evenodd" clip-rule="evenodd" d="M 51.8 37.7 C 51.8 37.5 52 37.3 52.3 37.3 C 52.5 37.4 52.7 37.6 52.7 37.8 C 52.6 38.1 52.4 38.3 52.2 38.2 C 51.9 38.2 51.7 38 51.8 37.7 Z" fill="#e96824"/>
<path fill-rule="evenodd" clip-rule="evenodd" d="M 50.2 40 C 50.2 39.8 50.4 39.7 50.6 39.7 C 50.8 39.7 50.9 39.9 50.9 40.1 C 50.9 40.3 50.7 40.5 50.5 40.4 C 50.3 40.4 50.1 40.2 50.2 40 Z" fill="#e96824"/>
<path fill-rule="evenodd" clip-rule="evenodd" d="M 48.4 41.6 C 48.4 41.4 48.6 41.3 48.7 41.3 C 48.9 41.3 49 41.5 49 41.6 C 49 41.8 48.8 41.9 48.7 41.9 C 48.5 41.9 48.4 41.7 48.4 41.6 Z" fill="#e96824"/>
<path fill-rule="evenodd" clip-rule="evenodd" d="M 46.3 43 C 46.3 42.9 46.4 42.8 46.5 42.8 C 46.6 42.8 46.7 42.9 46.7 43 C 46.7 43.1 46.6 43.2 46.5 43.2 C 46.3 43.2 46.3 43.1 46.3 43 Z" fill="#e96824"/>
<path fill-rule="evenodd" clip-rule="evenodd" d="M 43.7 43.7 C 43.7 43.7 43.8 43.6 43.9 43.6 C 44 43.6 44 43.7 44 43.8 C 44 43.8 43.9 43.9 43.8 43.9 C 43.8 43.9 43.7 43.8 43.7 43.7 Z" fill="#e96824"/>
<path fill-rule="evenodd" clip-rule="evenodd" d="M 41.5 43.9 C 41.5 43.8 41.5 43.8 41.6 43.8 C 41.6 43.8 41.7 43.8 41.7 43.9 C 41.7 44 41.6 44 41.6 44 C 41.5 44 41.5 43.9 41.5 43.9 Z" fill="#e96824"/>
<path fill-rule="evenodd" clip-rule="evenodd" d="M 39.2 43.7 C 39.2 43.6 39.2 43.6 39.3 43.6 C 39.3 43.6 39.3 43.6 39.3 43.7 C 39.3 43.7 39.3 43.7 39.3 43.7 C 39.2 43.7 39.2 43.7 39.2 43.7 Z" fill="#e96824"/>
<path fill-rule="evenodd" clip-rule="evenodd" d="M 36.6 42.9 C 36.6 42.9 36.6 42.9 36.7 42.9 C 36.7 42.9 36.7 42.9 36.7 42.9 C 36.7 42.9 36.7 42.9 36.7 42.9 C 36.6 42.9 36.6 42.9 36.6 42.9 Z" fill="#e96824"/>
<path fill-rule="evenodd" clip-rule="evenodd" d="M 30.5 28.2 C 30.4 29.6 29.1 30.7 27.7 30.5 C 26.2 30.4 25.1 29.1 25.3 27.6 C 25.4 26.2 26.7 25.1 28.2 25.3 C 29.6 25.4 30.7 26.7 30.5 28.2 Z" fill="#e96824"/>
<path fill-rule="evenodd" clip-rule="evenodd" d="M 28.2 34.9 C 28.1 36.1 26.9 37 25.7 36.9 C 24.5 36.8 23.5 35.7 23.7 34.5 C 23.8 33.2 24.9 32.3 26.1 32.4 C 27.4 32.5 28.3 33.6 28.2 34.9 Z" fill="#e96824"/>
<path fill-rule="evenodd" clip-rule="evenodd" d="M 24 39.6 C 23.9 40.7 23 41.5 21.9 41.4 C 20.8 41.3 20 40.3 20.1 39.3 C 20.2 38.2 21.2 37.4 22.3 37.5 C 23.3 37.6 24.1 38.6 24 39.6 Z" fill="#e96824"/>
<path fill-rule="evenodd" clip-rule="evenodd" d="M 18.8 42.3 C 18.7 43.2 17.9 43.9 16.9 43.8 C 16 43.8 15.3 42.9 15.3 42 C 15.4 41 16.3 40.3 17.2 40.4 C 18.2 40.5 18.9 41.3 18.8 42.3 Z" fill="#e96824"/>
<path fill-rule="evenodd" clip-rule="evenodd" d="M 13.3 42.4 C 13.2 43.3 12.4 43.9 11.6 43.8 C 10.7 43.7 10.1 43 10.2 42.1 C 10.3 41.2 11 40.6 11.9 40.7 C 12.8 40.8 13.4 41.5 13.3 42.4 Z" fill="#e96824"/>
<path fill-rule="evenodd" clip-rule="evenodd" d="M 8.7 40.6 C 8.6 41.4 7.9 41.9 7.1 41.8 C 6.4 41.8 5.8 41.1 5.9 40.3 C 5.9 39.5 6.6 39 7.4 39 C 8.2 39.1 8.8 39.8 8.7 40.6 Z" fill="#e96824"/>
<path fill-rule="evenodd" clip-rule="evenodd" d="M 5.3 37.6 C 5.2 38.3 4.6 38.8 3.9 38.7 C 3.2 38.6 2.7 38 2.7 37.3 C 2.8 36.6 3.4 36.1 4.1 36.2 C 4.8 36.3 5.3 36.9 5.3 37.6 Z" fill="#e96824"/>
<path fill-rule="evenodd" clip-rule="evenodd" d="M 3.1 34 C 3.1 34.6 2.5 35 1.9 35 C 1.3 34.9 0.9 34.4 1 33.8 C 1 33.2 1.6 32.8 2.1 32.8 C 2.7 32.9 3.2 33.4 3.1 34 Z" fill="#e96824"/>
<path fill-rule="evenodd" clip-rule="evenodd" d="M 1.9 30.2 C 1.9 30.7 1.4 31.1 0.9 31 C 0.4 31 0.1 30.5 0.1 30 C 0.2 29.5 0.6 29.2 1.1 29.2 C 1.6 29.3 1.9 29.7 1.9 30.2 Z" fill="#e96824"/>
<path fill-rule="evenodd" clip-rule="evenodd" d="M 1.6 26.7 C 1.5 27.1 1.1 27.4 0.7 27.4 C 0.3 27.3 0 26.9 0 26.5 C 0.1 26.1 0.4 25.8 0.9 25.8 C 1.3 25.9 1.6 26.2 1.6 26.7 Z" fill="#e96824"/>
<path fill-rule="evenodd" clip-rule="evenodd" d="M 1.9 23.4 C 1.8 23.7 1.5 24 1.1 24 C 0.8 23.9 0.5 23.6 0.5 23.2 C 0.6 22.9 0.9 22.6 1.3 22.6 C 1.6 22.7 1.9 23 1.9 23.4 Z" fill="#e96824"/>
<path fill-rule="evenodd" clip-rule="evenodd" d="M 2.8 20.4 C 2.8 20.7 2.5 20.9 2.2 20.9 C 1.9 20.9 1.7 20.6 1.7 20.3 C 1.8 20 2 19.8 2.3 19.8 C 2.6 19.9 2.8 20.1 2.8 20.4 Z" fill="#e96824"/>
<path fill-rule="evenodd" clip-rule="evenodd" d="M 4 18 C 4 18.3 3.8 18.5 3.5 18.5 C 3.3 18.4 3.1 18.2 3.1 18 C 3.1 17.7 3.4 17.5 3.6 17.6 C 3.9 17.6 4 17.8 4 18 Z" fill="#e96824"/>
<path fill-rule="evenodd" clip-rule="evenodd" d="M 5.6 15.7 C 5.6 15.9 5.4 16.1 5.2 16.1 C 5 16.1 4.9 15.9 4.9 15.7 C 4.9 15.5 5.1 15.3 5.3 15.4 C 5.5 15.4 5.6 15.6 5.6 15.7 Z" fill="#e96824"/>
<path fill-rule="evenodd" clip-rule="evenodd" d="M 7.4 14.2 C 7.4 14.4 7.2 14.5 7 14.5 C 6.9 14.5 6.7 14.3 6.8 14.2 C 6.8 14 6.9 13.9 7.1 13.9 C 7.3 13.9 7.4 14.1 7.4 14.2 Z" fill="#e96824"/>
<path fill-rule="evenodd" clip-rule="evenodd" d="M 9.5 12.8 C 9.5 12.9 9.4 13 9.3 13 C 9.2 13 9.1 12.9 9.1 12.8 C 9.1 12.7 9.2 12.6 9.3 12.6 C 9.5 12.6 9.5 12.7 9.5 12.8 Z" fill="#e96824"/>
<path fill-rule="evenodd" clip-rule="evenodd" d="M 12.1 12.1 C 12.1 12.1 12 12.2 11.9 12.2 C 11.8 12.2 11.8 12.1 11.8 12 C 11.8 11.9 11.9 11.9 11.9 11.9 C 12 11.9 12.1 12 12.1 12.1 Z" fill="#e96824"/>
<path fill-rule="evenodd" clip-rule="evenodd" d="M 14.3 11.9 C 14.3 12 14.3 12 14.2 12 C 14.2 12 14.1 11.9 14.1 11.9 C 14.1 11.8 14.2 11.8 14.2 11.8 C 14.3 11.8 14.3 11.8 14.3 11.9 Z" fill="#e96824"/>
<path fill-rule="evenodd" clip-rule="evenodd" d="M 16.6 12.1 C 16.6 12.2 16.6 12.2 16.5 12.2 C 16.5 12.2 16.5 12.2 16.5 12.1 C 16.5 12.1 16.5 12.1 16.5 12.1 C 16.6 12.1 16.6 12.1 16.6 12.1 Z" fill="#e96824"/>
<path fill-rule="evenodd" clip-rule="evenodd" d="M 19.2 12.9 C 19.2 12.9 19.2 12.9 19.1 12.9 C 19.1 12.9 19.1 12.9 19.1 12.9 C 19.1 12.9 19.1 12.9 19.1 12.9 C 19.2 12.9 19.2 12.9 19.2 12.9 Z" fill="#e96824"/>
<path fill-rule="evenodd" clip-rule="evenodd" d="M 28.1 25.2 C 29.6 25.4 30.7 26.7 30.5 28.1 C 30.4 29.6 29.1 30.7 27.6 30.5 C 26.2 30.4 25.1 29.1 25.2 27.6 C 25.4 26.2 26.7 25.1 28.1 25.2 Z" fill="#e96824"/>
<path fill-rule="evenodd" clip-rule="evenodd" d="M 34.9 27.6 C 36.1 27.7 37 28.8 36.9 30.1 C 36.8 31.3 35.7 32.2 34.4 32.1 C 33.2 32 32.3 30.9 32.4 29.7 C 32.5 28.4 33.6 27.5 34.9 27.6 Z" fill="#e96824"/>
<path fill-rule="evenodd" clip-rule="evenodd" d="M 39.6 31.8 C 40.7 31.9 41.5 32.8 41.4 33.9 C 41.3 35 40.3 35.8 39.3 35.7 C 38.2 35.6 37.4 34.6 37.5 33.5 C 37.6 32.5 38.6 31.7 39.6 31.8 Z" fill="#e96824"/>
<path fill-rule="evenodd" clip-rule="evenodd" d="M 42.3 37 C 43.2 37.1 43.9 37.9 43.8 38.9 C 43.8 39.8 42.9 40.5 42 40.4 C 41 40.4 40.3 39.5 40.4 38.6 C 40.5 37.6 41.3 36.9 42.3 37 Z" fill="#e96824"/>
<path fill-rule="evenodd" clip-rule="evenodd" d="M 42.4 42.5 C 43.3 42.6 43.9 43.3 43.8 44.2 C 43.7 45.1 43 45.7 42.1 45.6 C 41.2 45.5 40.6 44.8 40.7 43.9 C 40.8 43 41.5 42.4 42.4 42.5 Z" fill="#e96824"/>
<path fill-rule="evenodd" clip-rule="evenodd" d="M 40.6 47.1 C 41.4 47.2 41.9 47.9 41.8 48.6 C 41.8 49.4 41.1 50 40.3 49.9 C 39.5 49.9 39 49.2 39 48.4 C 39.1 47.6 39.8 47 40.6 47.1 Z" fill="#e96824"/>
<path fill-rule="evenodd" clip-rule="evenodd" d="M 37.6 50.5 C 38.3 50.6 38.8 51.2 38.7 51.9 C 38.6 52.6 38 53.1 37.3 53 C 36.6 53 36.1 52.4 36.2 51.7 C 36.3 51 36.9 50.5 37.6 50.5 Z" fill="#e96824"/>
<path fill-rule="evenodd" clip-rule="evenodd" d="M 34 52.7 C 34.6 52.7 35 53.3 35 53.8 C 34.9 54.4 34.4 54.9 33.8 54.8 C 33.2 54.8 32.8 54.2 32.8 53.6 C 32.9 53.1 33.4 52.6 34 52.7 Z" fill="#e96824"/>
<path fill-rule="evenodd" clip-rule="evenodd" d="M 30.2 53.9 C 30.7 53.9 31.1 54.4 31 54.9 C 31 55.4 30.5 55.7 30 55.7 C 29.5 55.6 29.2 55.2 29.2 54.7 C 29.3 54.2 29.7 53.8 30.2 53.9 Z" fill="#e96824"/>
<path fill-rule="evenodd" clip-rule="evenodd" d="M 26.7 54.2 C 27.1 54.3 27.4 54.6 27.4 55.1 C 27.3 55.5 27 55.8 26.5 55.8 C 26.1 55.7 25.8 55.4 25.8 54.9 C 25.9 54.5 26.2 54.2 26.7 54.2 Z" fill="#e96824"/>
<path fill-rule="evenodd" clip-rule="evenodd" d="M 23.4 53.9 C 23.7 53.9 24 54.3 24 54.6 C 23.9 55 23.6 55.3 23.2 55.2 C 22.9 55.2 22.6 54.9 22.6 54.5 C 22.7 54.2 23 53.9 23.4 53.9 Z" fill="#e96824"/>
<path fill-rule="evenodd" clip-rule="evenodd" d="M 20.4 53 C 20.7 53 20.9 53.3 20.9 53.6 C 20.9 53.9 20.6 54.1 20.3 54.1 C 20 54 19.8 53.8 19.8 53.5 C 19.9 53.2 20.1 52.9 20.4 53 Z" fill="#e96824"/>
<path fill-rule="evenodd" clip-rule="evenodd" d="M 18 51.8 C 18.3 51.8 18.5 52 18.5 52.3 C 18.4 52.5 18.2 52.7 18 52.7 C 17.7 52.6 17.5 52.4 17.6 52.2 C 17.6 51.9 17.8 51.7 18 51.8 Z" fill="#e96824"/>
<path fill-rule="evenodd" clip-rule="evenodd" d="M 15.8 50.2 C 15.9 50.2 16.1 50.4 16.1 50.6 C 16.1 50.8 15.9 50.9 15.7 50.9 C 15.5 50.9 15.3 50.7 15.4 50.5 C 15.4 50.3 15.6 50.1 15.8 50.2 Z" fill="#e96824"/>
<path fill-rule="evenodd" clip-rule="evenodd" d="M 14.2 48.4 C 14.4 48.4 14.5 48.6 14.5 48.7 C 14.5 48.9 14.3 49 14.2 49 C 14 49 13.9 48.8 13.9 48.7 C 13.9 48.5 14.1 48.4 14.2 48.4 Z" fill="#e96824"/>
<path fill-rule="evenodd" clip-rule="evenodd" d="M 12.8 46.3 C 12.9 46.3 13 46.4 13 46.5 C 13 46.6 12.9 46.7 12.8 46.7 C 12.7 46.7 12.6 46.6 12.6 46.5 C 12.6 46.3 12.7 46.3 12.8 46.3 Z" fill="#e96824"/>
<path fill-rule="evenodd" clip-rule="evenodd" d="M 12.1 43.7 C 12.1 43.7 12.2 43.8 12.2 43.9 C 12.2 44 12.1 44 12 44 C 11.9 44 11.9 43.9 11.9 43.8 C 11.9 43.8 12 43.7 12.1 43.7 Z" fill="#e96824"/>
<path fill-rule="evenodd" clip-rule="evenodd" d="M 11.9 41.5 C 11.9 41.5 12 41.5 12 41.6 C 12 41.6 11.9 41.7 11.9 41.7 C 11.8 41.7 11.8 41.6 11.8 41.6 C 11.8 41.5 11.8 41.5 11.9 41.5 Z" fill="#e96824"/>
<path fill-rule="evenodd" clip-rule="evenodd" d="M 12.1 39.2 C 12.2 39.2 12.2 39.2 12.2 39.3 C 12.2 39.3 12.2 39.3 12.1 39.3 C 12.1 39.3 12.1 39.3 12.1 39.3 C 12.1 39.2 12.1 39.2 12.1 39.2 Z" fill="#e96824"/>
<path fill-rule="evenodd" clip-rule="evenodd" d="M 12.9 36.6 C 12.9 36.6 12.9 36.6 12.9 36.7 C 12.9 36.7 12.9 36.7 12.9 36.7 C 12.9 36.7 12.9 36.7 12.9 36.7 C 12.9 36.6 12.9 36.6 12.9 36.6 Z" fill="#e96824"/>
<path fill-rule="evenodd" clip-rule="evenodd" d="M 27.6 30.5 C 26.2 30.4 25.1 29.1 25.2 27.6 C 25.4 26.2 26.7 25.1 28.1 25.3 C 29.6 25.4 30.7 26.7 30.5 28.2 C 30.4 29.6 29.1 30.7 27.6 30.5 Z" fill="#e96824"/>
<path fill-rule="evenodd" clip-rule="evenodd" d="M 20.9 28.2 C 19.7 28.1 18.7 26.9 18.9 25.7 C 19 24.5 20.1 23.5 21.3 23.7 C 22.6 23.8 23.5 24.9 23.4 26.1 C 23.3 27.4 22.1 28.3 20.9 28.2 Z" fill="#e96824"/>
<path fill-rule="evenodd" clip-rule="evenodd" d="M 16.2 24 C 15.1 23.9 14.3 23 14.4 21.9 C 14.5 20.8 15.5 20 16.5 20.1 C 17.6 20.2 18.4 21.2 18.3 22.3 C 18.2 23.3 17.2 24.1 16.2 24 Z" fill="#e96824"/>
<path fill-rule="evenodd" clip-rule="evenodd" d="M 13.5 18.8 C 12.6 18.7 11.9 17.8 11.9 16.9 C 12 16 12.9 15.3 13.8 15.4 C 14.8 15.4 15.5 16.3 15.4 17.2 C 15.3 18.2 14.4 18.9 13.5 18.8 Z" fill="#e96824"/>
<path fill-rule="evenodd" clip-rule="evenodd" d="M 13.4 13.3 C 12.5 13.2 11.9 12.5 12 11.6 C 12.1 10.7 12.8 10.1 13.7 10.2 C 14.6 10.3 15.2 11 15.1 11.9 C 15 12.8 14.3 13.4 13.4 13.3 Z" fill="#e96824"/>
<path fill-rule="evenodd" clip-rule="evenodd" d="M 15.2 8.7 C 14.4 8.6 13.9 7.9 13.9 7.1 C 14 6.4 14.7 5.8 15.5 5.9 C 16.3 5.9 16.8 6.6 16.8 7.4 C 16.7 8.2 16 8.8 15.2 8.7 Z" fill="#e96824"/>
<path fill-rule="evenodd" clip-rule="evenodd" d="M 18.2 5.3 C 17.5 5.2 17 4.6 17.1 3.9 C 17.1 3.2 17.8 2.7 18.5 2.7 C 19.2 2.8 19.7 3.4 19.6 4.1 C 19.5 4.8 18.9 5.3 18.2 5.3 Z" fill="#e96824"/>
<path fill-rule="evenodd" clip-rule="evenodd" d="M 21.8 3.1 C 21.2 3.1 20.8 2.5 20.8 1.9 C 20.9 1.3 21.4 0.9 22 1 C 22.6 1 23 1.6 23 2.1 C 22.9 2.7 22.4 3.2 21.8 3.1 Z" fill="#e96824"/>
<path fill-rule="evenodd" clip-rule="evenodd" d="M 25.6 1.9 C 25.1 1.9 24.7 1.4 24.8 0.9 C 24.8 0.4 25.3 0.1 25.8 0.1 C 26.3 0.2 26.6 0.6 26.6 1.1 C 26.5 1.6 26.1 1.9 25.6 1.9 Z" fill="#e96824"/>
<path fill-rule="evenodd" clip-rule="evenodd" d="M 29.1 1.6 C 28.7 1.5 28.4 1.1 28.4 0.7 C 28.5 0.3 28.8 0 29.3 0 C 29.7 0.1 30 0.4 30 0.9 C 29.9 1.3 29.6 1.6 29.1 1.6 Z" fill="#e96824"/>
<path fill-rule="evenodd" clip-rule="evenodd" d="M 32.4 1.9 C 32.1 1.8 31.8 1.5 31.8 1.1 C 31.9 0.8 32.2 0.5 32.6 0.5 C 32.9 0.6 33.2 0.9 33.2 1.3 C 33.1 1.6 32.8 1.9 32.4 1.9 Z" fill="#e96824"/>
<path fill-rule="evenodd" clip-rule="evenodd" d="M 35.4 2.8 C 35.1 2.8 34.8 2.5 34.9 2.2 C 34.9 1.9 35.2 1.7 35.5 1.7 C 35.8 1.8 36 2 36 2.3 C 35.9 2.6 35.7 2.8 35.4 2.8 Z" fill="#e96824"/>
<path fill-rule="evenodd" clip-rule="evenodd" d="M 37.7 4 C 37.5 4 37.3 3.8 37.3 3.5 C 37.4 3.3 37.6 3.1 37.8 3.1 C 38.1 3.1 38.3 3.4 38.2 3.6 C 38.2 3.9 38 4 37.7 4 Z" fill="#e96824"/>
<path fill-rule="evenodd" clip-rule="evenodd" d="M 40 5.6 C 39.8 5.6 39.7 5.4 39.7 5.2 C 39.7 5 39.9 4.9 40.1 4.9 C 40.3 4.9 40.5 5.1 40.4 5.3 C 40.4 5.5 40.2 5.6 40 5.6 Z" fill="#e96824"/>
<path fill-rule="evenodd" clip-rule="evenodd" d="M 41.6 7.4 C 41.4 7.3 41.3 7.2 41.3 7 C 41.3 6.9 41.5 6.7 41.6 6.8 C 41.8 6.8 41.9 6.9 41.9 7.1 C 41.9 7.3 41.7 7.4 41.6 7.4 Z" fill="#e96824"/>
<path fill-rule="evenodd" clip-rule="evenodd" d="M 43 9.5 C 42.9 9.5 42.8 9.4 42.8 9.3 C 42.8 9.2 42.9 9.1 43 9.1 C 43.1 9.1 43.2 9.2 43.2 9.3 C 43.2 9.4 43.1 9.5 43 9.5 Z" fill="#e96824"/>
<path fill-rule="evenodd" clip-rule="evenodd" d="M 43.7 12.1 C 43.7 12.1 43.6 12 43.6 11.9 C 43.6 11.8 43.7 11.8 43.8 11.8 C 43.8 11.8 43.9 11.9 43.9 11.9 C 43.9 12 43.8 12.1 43.7 12.1 Z" fill="#e96824"/>
<path fill-rule="evenodd" clip-rule="evenodd" d="M 43.9 14.3 C 43.8 14.3 43.8 14.3 43.8 14.2 C 43.8 14.2 43.8 14.1 43.9 14.1 C 44 14.1 44 14.2 44 14.2 C 44 14.3 43.9 14.3 43.9 14.3 Z" fill="#e96824"/>
<path fill-rule="evenodd" clip-rule="evenodd" d="M 43.7 16.6 C 43.6 16.6 43.6 16.6 43.6 16.5 C 43.6 16.5 43.6 16.5 43.7 16.5 C 43.7 16.5 43.7 16.5 43.7 16.5 C 43.7 16.6 43.7 16.6 43.7 16.6 Z" fill="#e96824"/>
<path fill-rule="evenodd" clip-rule="evenodd" d="M 42.9 19.2 C 42.9 19.2 42.9 19.2 42.9 19.1 C 42.9 19.1 42.9 19.1 42.9 19.1 C 42.9 19.1 42.9 19.1 42.9 19.1 C 42.9 19.2 42.9 19.2 42.9 19.2 Z" fill="#e96824"/>
<path d="M 81.5 36.7 C 79.5 36.7 77.9 36.1 76.9 34.9 C 76 33.9 75.6 32.6 75.6 31 C 75.6 30.8 75.6 30.7 75.6 30.5 C 75.6 30.4 75.6 30.3 75.6 30.1 C 75.6 29.8 75.8 29.6 76 29.4 C 76.2 29.2 76.4 29.1 76.7 29.1 C 77 29.2 77.2 29.3 77.4 29.5 C 77.6 29.8 77.7 30 77.7 30.3 C 77.5 31.8 77.8 32.9 78.5 33.6 C 79.1 34.3 80.1 34.6 81.5 34.6 C 82 34.6 82.5 34.6 82.9 34.4 C 83.3 34.2 83.6 34 83.8 33.8 C 84.1 33.6 84.3 33.3 84.4 33 C 84.5 32.7 84.6 32.4 84.7 32.1 C 84.7 31.8 84.7 31.5 84.6 31.1 C 84.5 30.8 84.4 30.5 84.2 30.2 C 84 29.9 83.7 29.6 83.4 29.3 C 83 29.1 82.6 28.9 82.2 28.7 L 79.4 28 C 78.9 27.9 78.4 27.7 78 27.4 C 77.5 27.1 77.2 26.7 76.9 26.3 V 26.3 C 76.7 25.9 76.5 25.5 76.4 25 C 76.3 24.5 76.3 24 76.4 23.6 C 76.5 22.4 77 21.4 77.9 20.7 C 78.8 19.8 79.9 19.4 81.3 19.4 C 82 19.4 82.6 19.5 83.2 19.7 C 83.8 20 84.4 20.3 84.8 20.7 C 85.3 21.1 85.7 21.6 85.9 22.2 C 86.2 22.8 86.4 23.5 86.4 24.1 C 86.4 24.4 86.3 24.7 86.1 24.9 C 85.9 25.1 85.6 25.1 85.3 25.1 C 85.1 25.1 84.8 25 84.6 24.9 C 84.4 24.7 84.3 24.4 84.3 24.1 C 84.3 23.4 84 22.7 83.5 22.2 C 82.9 21.7 82.2 21.4 81.3 21.4 C 80.9 21.4 80.5 21.5 80.2 21.7 C 79.8 21.8 79.5 22 79.3 22.2 C 79 22.4 78.8 22.7 78.7 23 C 78.5 23.3 78.5 23.5 78.4 23.8 C 78.4 24.2 78.5 24.7 78.7 25.1 C 78.9 25.6 79.3 25.9 79.9 26.1 L 82.7 26.8 C 83.4 26.9 84.1 27.2 84.6 27.6 C 85.2 28 85.6 28.4 86 29 C 86.3 29.5 86.5 30 86.7 30.6 C 86.8 31.2 86.8 31.8 86.8 32.4 C 86.7 33 86.5 33.6 86.2 34.1 C 86 34.6 85.6 35 85.2 35.4 C 84.2 36.3 83 36.7 81.5 36.7 Z" fill="#ffffff"/>
<path d="M 93.7 36.7 C 93.4 36.7 93.1 36.6 92.9 36.4 C 92.7 36.2 92.7 36 92.7 35.7 V 12.7 C 92.7 12.4 92.8 12.2 92.9 12 C 93.1 11.8 93.4 11.7 93.7 11.7 C 94 11.7 94.2 11.8 94.4 12 C 94.6 12.2 94.7 12.4 94.7 12.7 V 35.7 C 94.7 36 94.6 36.2 94.4 36.4 C 94.2 36.6 94 36.7 93.7 36.7 Z M 101.1 36.7 C 100 36.7 98.9 36.5 97.9 36.1 C 96.9 35.7 95.9 35.1 95.1 34.4 C 94.3 33.6 93.7 32.7 93.3 31.7 C 92.9 30.7 92.6 29.7 92.6 28.6 C 92.6 27.5 92.8 26.5 93.3 25.5 C 93.7 24.6 94.3 23.7 95.1 22.9 C 95.9 22.1 96.9 21.6 97.9 21.2 C 98.9 20.8 100 20.6 101.1 20.6 C 101.4 20.6 101.7 20.7 101.8 20.8 C 102 21 102.1 21.3 102.1 21.6 C 102.1 21.9 102 22.1 101.8 22.3 C 101.7 22.5 101.4 22.6 101.1 22.6 C 100.2 22.6 99.4 22.7 98.6 23.1 C 97.8 23.4 97.2 23.8 96.6 24.4 C 96 24.9 95.6 25.5 95.2 26.2 C 94.9 27 94.7 27.7 94.7 28.6 C 94.7 29.4 94.9 30.2 95.2 30.9 C 95.6 31.6 96 32.3 96.6 32.8 C 97.2 33.4 97.8 33.8 98.6 34.1 C 99.4 34.4 100.2 34.6 101.1 34.6 C 101.4 34.6 101.7 34.7 101.8 34.9 C 102 35.1 102.1 35.3 102.1 35.6 C 102.1 35.9 102 36.2 101.8 36.4 C 101.7 36.6 101.4 36.7 101.1 36.7 Z" fill="#ffffff"/>
<path d="M 111 18.7 C 110.7 18.7 110.4 18.6 110.3 18.4 C 110.1 18.2 109.9 18 109.9 17.7 V 16.6 C 109.9 16.4 110 16.1 110.3 15.9 C 110.4 15.7 110.7 15.6 111 15.6 C 111.3 15.6 111.5 15.7 111.7 15.9 C 111.9 16.1 112 16.4 112 16.6 V 17.7 C 112 18 111.9 18.2 111.7 18.4 C 111.5 18.6 111.3 18.7 111 18.7 Z M 111 36.7 C 110.7 36.7 110.4 36.6 110.3 36.4 C 110.1 36.2 109.9 36 109.9 35.7 V 21.1 C 109.9 20.8 110 20.6 110.3 20.4 C 110.4 20.2 110.7 20 111 20 C 111.3 20 111.5 20.1 111.7 20.4 C 111.9 20.6 112 20.8 112 21.1 V 35.7 C 112 35.9 111.9 36.2 111.7 36.4 C 111.5 36.6 111.3 36.7 111 36.7 Z" fill="#ffffff"/>
<path d="M 125.1 36.7 C 124.2 36.7 123.3 36.5 122.6 36.2 C 121.8 35.9 121.1 35.4 120.5 34.8 C 119.9 34.2 119.4 33.5 119.1 32.7 C 118.7 32 118.6 31.1 118.6 30.2 V 12.7 C 118.6 12.4 118.7 12.2 118.9 12 C 119.1 11.8 119.3 11.7 119.6 11.7 C 119.9 11.7 120.2 11.8 120.4 12 C 120.6 12.2 120.7 12.4 120.7 12.7 V 30.2 C 120.7 30.8 120.8 31.4 121 31.9 C 121.2 32.5 121.5 32.9 121.9 33.3 C 122.3 33.7 122.8 34 123.3 34.3 C 123.9 34.5 124.5 34.6 125.1 34.6 C 125.4 34.6 125.6 34.7 125.8 34.9 C 126 35.1 126.1 35.4 126.1 35.7 C 126.1 36 126 36.2 125.8 36.4 C 125.6 36.6 125.4 36.7 125.1 36.7 Z" fill="#ffffff"/>
<path d="M 136.7 36.7 C 135.8 36.7 135 36.5 134.2 36.2 C 133.4 35.9 132.7 35.4 132.1 34.8 C 131.5 34.2 131.1 33.5 130.7 32.7 C 130.4 32 130.2 31.1 130.2 30.2 V 12.7 C 130.2 12.4 130.3 12.2 130.5 12 C 130.7 11.8 131 11.7 131.2 11.7 C 131.6 11.7 131.8 11.8 132 12 C 132.2 12.2 132.3 12.4 132.3 12.7 V 30.2 C 132.3 30.8 132.4 31.4 132.6 31.9 C 132.9 32.5 133.2 32.9 133.6 33.3 C 134 33.7 134.4 34 135 34.3 C 135.5 34.5 136.1 34.6 136.7 34.6 C 137 34.6 137.2 34.7 137.4 34.9 C 137.6 35.1 137.7 35.4 137.7 35.7 C 137.7 36 137.6 36.2 137.4 36.4 C 137.2 36.6 137 36.7 136.7 36.7 Z" fill="#ffffff"/>
<path d="M 165.9 36.7 C 163.8 36.7 162.3 36.1 161.3 34.9 C 160.4 33.9 159.9 32.6 159.9 31 C 159.9 30.8 159.9 30.7 159.9 30.5 C 159.9 30.4 159.9 30.3 159.9 30.1 C 160 29.8 160.1 29.6 160.3 29.4 C 160.5 29.2 160.8 29.1 161.1 29.1 C 161.4 29.2 161.6 29.3 161.8 29.5 C 161.9 29.8 162 30 162 30.3 C 161.9 31.8 162.2 32.9 162.8 33.6 C 163.4 34.3 164.5 34.6 165.9 34.6 C 166.4 34.6 166.9 34.6 167.2 34.4 C 167.6 34.2 167.9 34 168.2 33.8 C 168.4 33.6 168.6 33.3 168.8 33 C 168.9 32.7 169 32.4 169 32.1 C 169.1 31.8 169.1 31.5 169 31.1 C 168.9 30.8 168.8 30.5 168.6 30.2 C 168.4 29.9 168.1 29.6 167.7 29.3 C 167.4 29.1 167 28.9 166.5 28.7 L 163.7 28 C 163.2 27.9 162.8 27.7 162.3 27.4 C 161.9 27.1 161.5 26.7 161.3 26.3 V 26.3 C 161 25.9 160.9 25.5 160.8 25 C 160.7 24.5 160.7 24 160.7 23.6 C 160.9 22.4 161.4 21.4 162.2 20.7 C 163.1 19.8 164.3 19.4 165.7 19.4 C 166.3 19.4 166.9 19.5 167.6 19.7 C 168.2 20 168.7 20.3 169.2 20.7 C 169.7 21.1 170 21.6 170.3 22.2 C 170.6 22.8 170.7 23.5 170.7 24.1 C 170.7 24.4 170.6 24.7 170.4 24.9 C 170.2 25.1 170 25.1 169.7 25.1 C 169.4 25.1 169.2 25 169 24.9 C 168.8 24.7 168.7 24.4 168.7 24.1 C 168.7 23.4 168.4 22.7 167.8 22.2 C 167.3 21.7 166.5 21.4 165.7 21.4 C 165.3 21.4 164.9 21.5 164.5 21.7 C 164.2 21.8 163.9 22 163.6 22.2 C 163.4 22.4 163.2 22.7 163.1 23 C 162.9 23.3 162.8 23.5 162.8 23.8 C 162.7 24.2 162.8 24.7 163 25.1 C 163.2 25.6 163.7 25.9 164.3 26.1 L 167.1 26.8 C 167.8 26.9 168.4 27.2 169 27.6 C 169.5 28 170 28.4 170.4 29 C 170.7 29.5 170.9 30 171 30.6 C 171.2 31.2 171.2 31.8 171.1 32.4 C 171 33 170.9 33.6 170.6 34.1 C 170.3 34.6 170 35 169.6 35.4 C 168.5 36.3 167.3 36.7 165.9 36.7 Z" fill="#ffffff"/>
<path d="M 177.3 18.7 C 177 18.7 176.8 18.6 176.6 18.4 C 176.4 18.2 176.2 18 176.2 17.7 V 16.6 C 176.2 16.4 176.3 16.1 176.6 15.9 C 176.8 15.7 177 15.6 177.3 15.6 C 177.6 15.6 177.8 15.7 178 15.9 C 178.2 16.1 178.3 16.4 178.3 16.6 V 17.7 C 178.3 18 178.2 18.2 178 18.4 C 177.8 18.6 177.6 18.7 177.3 18.7 Z M 177.3 36.7 C 177 36.7 176.8 36.6 176.6 36.4 C 176.4 36.2 176.2 36 176.2 35.7 V 21.1 C 176.2 20.8 176.3 20.6 176.6 20.4 C 176.8 20.2 177 20 177.3 20 C 177.6 20 177.8 20.1 178 20.4 C 178.2 20.6 178.3 20.8 178.3 21.1 V 35.7 C 178.3 35.9 178.2 36.2 178 36.4 C 177.8 36.6 177.6 36.7 177.3 36.7 Z" fill="#ffffff"/>
<path d="M 193.4 44.1 C 191.1 44.1 189.2 43.3 187.6 41.6 C 186.8 40.8 186.3 39.9 185.9 38.9 C 185.5 37.8 185.3 36.8 185.3 35.6 C 185.3 35.3 185.4 35.1 185.6 34.9 C 185.8 34.7 186 34.6 186.3 34.6 C 186.6 34.6 186.9 34.7 187 34.9 C 187.2 35.1 187.3 35.3 187.3 35.6 C 187.3 36.5 187.5 37.4 187.8 38.1 C 188.1 38.9 188.5 39.6 189.1 40.2 C 189.6 40.8 190.3 41.2 191 41.6 C 191.7 41.9 192.5 42.1 193.3 42.1 C 194.2 42.1 194.9 41.9 195.7 41.6 C 196.4 41.2 197.1 40.8 197.6 40.2 C 198.1 39.6 198.6 38.9 198.9 38.1 C 199.2 37.4 199.4 36.5 199.4 35.6 C 199.4 34.7 199.2 33.9 198.9 33.1 C 198.6 32.4 198.1 31.7 197.6 31.1 C 197.1 30.5 196.4 30 195.7 29.7 C 194.9 29.4 194.2 29.2 193.3 29.2 C 193 29.2 192.8 29.1 192.6 28.9 C 192.4 28.7 192.3 28.4 192.3 28.2 C 192.3 27.9 192.4 27.6 192.6 27.4 C 192.8 27.2 193 27.1 193.3 27.1 C 194.4 27.1 195.5 27.4 196.4 27.8 C 197.4 28.2 198.3 28.8 199.1 29.7 C 199.8 30.4 200.4 31.3 200.8 32.4 C 201.2 33.4 201.4 34.5 201.4 35.6 C 201.4 36.8 201.2 37.8 200.8 38.9 C 200.4 39.9 199.8 40.8 199.1 41.6 C 198.3 42.4 197.4 43.1 196.4 43.5 C 195.5 43.9 194.4 44.1 193.4 44.1 Z M 193.4 21.7 C 192.5 21.7 191.7 21.9 191 22.2 C 190.3 22.6 189.6 23 189.1 23.6 C 188.6 24.2 188.1 24.9 187.8 25.6 C 187.5 26.4 187.3 27.3 187.3 28.2 C 187.3 29 187.5 29.9 187.8 30.7 C 188.1 31.5 188.6 32.1 189.1 32.7 C 189.6 33.3 190.3 33.8 191 34.1 C 191.7 34.4 192.5 34.6 193.4 34.6 C 194.2 34.6 195 34.4 195.7 34.1 C 196.4 33.8 197.1 33.3 197.6 32.7 C 198.2 32.1 198.6 31.5 198.9 30.7 C 199.2 29.9 199.4 29 199.4 28.2 C 199.4 27.3 199.2 26.4 198.9 25.6 C 198.6 24.9 198.2 24.2 197.6 23.6 C 197.1 23 196.4 22.6 195.7 22.2 C 195 21.9 194.2 21.7 193.4 21.7 Z M 193.4 36.7 C 192.2 36.7 191.2 36.4 190.2 36 C 189.3 35.6 188.4 34.9 187.6 34.1 C 186.8 33.3 186.3 32.4 185.9 31.4 C 185.5 30.4 185.3 29.3 185.3 28.1 C 185.3 27 185.5 25.9 185.9 24.9 C 186.3 23.9 186.8 23 187.6 22.1 C 188.4 21.3 189.3 20.7 190.2 20.3 C 191.2 19.9 192.2 19.7 193.4 19.7 C 194.4 19.7 195.5 19.9 196.5 20.3 C 197.5 20.7 198.3 21.3 199.1 22.1 C 199.9 23 200.4 23.9 200.8 24.9 C 201.3 25.9 201.4 27 201.4 28.1 C 201.4 29.3 201.3 30.4 200.8 31.4 C 200.4 32.4 199.9 33.3 199.1 34.1 C 198.3 34.9 197.5 35.6 196.5 36 C 195.5 36.4 194.4 36.7 193.4 36.7 Z" fill="#ffffff"/>
<path d="M 226.8 36.7 C 226.5 36.7 226.2 36.6 226 36.4 C 225.8 36.2 225.8 36 225.8 35.7 V 26.5 C 225.8 25.9 225.7 25.4 225.4 24.8 C 225.2 24.3 224.9 23.8 224.5 23.4 C 224.1 23 223.6 22.7 223.1 22.5 C 222.5 22.2 222 22.1 221.3 22.1 C 220.7 22.1 220.2 22.2 219.6 22.5 C 219.1 22.7 218.6 23 218.2 23.4 C 217.8 23.8 217.5 24.3 217.3 24.8 C 217.1 25.4 216.9 25.9 216.9 26.5 V 35.7 C 216.9 36 216.8 36.2 216.6 36.4 C 216.4 36.6 216.2 36.7 215.9 36.7 C 215.6 36.7 215.4 36.6 215.2 36.4 C 215 36.2 214.9 36 214.9 35.7 V 26.5 C 214.9 25.6 215 24.8 215.4 24 C 215.7 23.2 216.2 22.5 216.8 22 C 217.3 21.4 218 20.9 218.8 20.6 C 219.6 20.2 220.4 20.1 221.3 20.1 C 222.2 20.1 223.1 20.2 223.9 20.6 C 224.6 20.9 225.3 21.4 225.9 22 C 226.5 22.5 227 23.2 227.3 24 C 227.7 24.8 227.8 25.6 227.8 26.5 V 35.7 C 227.8 36 227.7 36.2 227.5 36.4 C 227.3 36.6 227.1 36.7 226.8 36.7 Z M 208.3 36.7 C 208 36.7 207.7 36.6 207.6 36.4 C 207.4 36.2 207.2 36 207.2 35.7 V 26.5 C 207.2 25.6 207.4 24.8 207.7 24 C 208.1 23.2 208.6 22.5 209.1 22 C 209.7 21.4 210.4 20.9 211.2 20.6 C 212 20.2 212.8 20.1 213.7 20.1 C 214.6 20.1 215.4 20.2 216.2 20.5 C 216.9 20.9 217.6 21.3 218.3 21.9 C 218.5 22.1 218.6 22.4 218.6 22.6 C 218.6 22.9 218.5 23.2 218.3 23.4 C 218.1 23.5 217.9 23.6 217.6 23.6 C 217.3 23.7 217 23.6 216.8 23.4 C 215.9 22.5 214.9 22.1 213.7 22.1 C 213.1 22.1 212.5 22.2 212 22.5 C 211.5 22.7 211 23 210.6 23.4 C 210.2 23.8 209.9 24.3 209.7 24.8 C 209.4 25.4 209.3 25.9 209.3 26.5 V 35.7 C 209.3 35.9 209.2 36.2 209 36.4 C 208.8 36.6 208.6 36.7 208.3 36.7 Z" fill="#ffffff"/>
<path d="M 247.5 36.7 C 247.3 36.7 247 36.6 246.8 36.4 C 246.6 36.2 246.5 36 246.5 35.7 V 28.2 C 246.5 27.9 246.6 27.7 246.8 27.5 C 247 27.3 247.3 27.2 247.5 27.2 C 247.8 27.2 248.1 27.3 248.3 27.5 C 248.5 27.7 248.6 27.9 248.6 28.2 V 35.7 C 248.6 36 248.5 36.2 248.3 36.4 C 248.1 36.6 247.8 36.7 247.5 36.7 Z M 240.5 21.8 C 239.7 21.8 238.9 22 238.2 22.3 C 237.4 22.6 236.8 23.1 236.3 23.7 C 235.7 24.2 235.3 24.9 235 25.7 C 234.7 26.5 234.5 27.3 234.5 28.2 C 234.5 29.1 234.7 29.9 235 30.7 C 235.3 31.5 235.7 32.2 236.3 32.7 C 236.8 33.3 237.4 33.8 238.2 34.1 C 238.9 34.5 239.7 34.6 240.5 34.6 C 241.3 34.6 242.1 34.5 242.8 34.1 C 243.6 33.8 244.2 33.3 244.8 32.7 C 245.3 32.2 245.7 31.5 246.1 30.7 C 246.4 29.9 246.5 29.1 246.5 28.2 C 246.5 27.3 246.4 26.5 246.1 25.7 C 245.7 24.9 245.3 24.2 244.8 23.7 C 244.2 23.1 243.6 22.6 242.8 22.3 C 242.1 22 241.3 21.8 240.5 21.8 Z M 240.5 36.7 C 239.4 36.7 238.4 36.5 237.4 36 C 236.4 35.6 235.5 35 234.8 34.2 H 234.8 C 234 33.4 233.4 32.5 233 31.4 C 232.6 30.4 232.4 29.3 232.4 28.2 C 232.4 27 232.6 26 233 24.9 C 233.4 23.9 234 23 234.8 22.2 C 236.3 20.6 238.3 19.7 240.5 19.7 C 241.6 19.7 242.6 19.9 243.6 20.4 C 244.6 20.8 245.5 21.4 246.2 22.2 C 247 23 247.6 23.9 248 24.9 C 248.4 26 248.6 27.1 248.6 28.2 C 248.6 29.3 248.4 30.4 248 31.4 C 247.6 32.5 247 33.4 246.2 34.2 C 245.5 35 244.6 35.6 243.6 36 C 242.6 36.5 241.6 36.7 240.5 36.7 Z" fill="#ffffff"/>
<path d="M 93.3 62.8 H 94 L 96.6 69.7 H 95.8 L 95.2 67.9 H 92.1 L 91.4 69.7 H 90.7 L 93.3 62.8 Z M 94.9 67.2 L 93.6 63.7 L 92.3 67.2 H 94.9 Z" fill="#ffffff"/>
<path d="M 123.2 62.8 H 123.9 V 69.7 H 123.2 V 62.8 Z" fill="#ffffff"/>
<path d="M 125.5 64.6 H 126.2 V 65.4 C 126.5 64.9 127 64.5 127.7 64.5 C 128.7 64.5 129.4 65.2 129.4 66.3 V 69.7 H 128.7 V 66.5 C 128.7 65.6 128.2 65.1 127.5 65.1 C 126.8 65.1 126.2 65.7 126.2 66.6 V 69.7 H 125.5 V 64.6 Z" fill="#ffffff"/>
<path d="M 130.8 62.7 H 131.6 V 63.5 H 130.8 V 62.7 Z M 130.8 64.6 H 131.5 V 69.7 H 130.8 V 64.6 Z" fill="#ffffff"/>
<path d="M 133.3 68.5 V 65.2 H 132.6 V 64.6 H 133.3 V 63.1 H 134 V 64.6 H 135.3 V 65.2 H 134 V 68.4 C 134 68.9 134.2 69.1 134.7 69.1 C 134.9 69.1 135.1 69 135.3 69 V 69.6 C 135.1 69.7 134.8 69.7 134.5 69.7 C 133.8 69.7 133.3 69.4 133.3 68.5 Z" fill="#ffffff"/>
<path d="M 136.4 62.7 H 137.2 V 63.5 H 136.4 V 62.7 Z M 136.5 64.6 H 137.2 V 69.7 H 136.5 V 64.6 Z" fill="#ffffff"/>
<path d="M 138.4 68.2 V 68.2 C 138.4 67.1 139.1 66.5 140.2 66.5 C 140.8 66.5 141.2 66.6 141.5 66.7 V 66.4 C 141.5 65.6 141.1 65.2 140.2 65.2 C 139.7 65.2 139.3 65.3 138.9 65.5 L 138.7 64.9 C 139.2 64.7 139.7 64.5 140.3 64.5 C 140.9 64.5 141.4 64.7 141.7 65 C 142 65.3 142.2 65.8 142.2 66.4 V 69.7 H 141.5 V 68.9 C 141.2 69.4 140.7 69.8 140 69.8 C 139.1 69.8 138.4 69.2 138.4 68.2 Z M 141.6 67.9 V 67.3 C 141.2 67.2 140.8 67.1 140.3 67.1 C 139.5 67.1 139.1 67.5 139.1 68.1 V 68.2 C 139.1 68.8 139.5 69.2 140.1 69.2 C 140.9 69.2 141.6 68.6 141.6 67.9 Z" fill="#ffffff"/>
<path d="M 143.8 68.5 V 65.2 H 143.2 V 64.6 H 143.8 V 63.1 H 144.5 V 64.6 H 145.8 V 65.2 H 144.5 V 68.4 C 144.5 68.9 144.8 69.1 145.2 69.1 C 145.4 69.1 145.6 69 145.8 69 V 69.6 C 145.6 69.7 145.3 69.7 145.1 69.7 C 144.3 69.7 143.8 69.4 143.8 68.5 Z" fill="#ffffff"/>
<path d="M 147 62.7 H 147.8 V 63.5 H 147 V 62.7 Z M 147 64.6 H 147.7 V 69.7 H 147 V 64.6 Z" fill="#ffffff"/>
<path d="M 148.8 64.6 H 149.6 L 151 68.8 L 152.4 64.6 H 153.2 L 151.3 69.7 H 150.7 L 148.8 64.6 Z" fill="#ffffff"/>
<path d="M 153.7 67.2 V 67.1 C 153.7 65.5 154.6 64.5 155.8 64.5 C 157.1 64.5 157.8 65.6 157.8 67.1 C 157.8 67.2 157.8 67.3 157.8 67.4 H 154.4 C 154.5 68.5 155.2 69.1 156 69.1 C 156.5 69.1 156.9 68.9 157.3 68.6 L 157.7 69 C 157.2 69.5 156.7 69.8 155.9 69.8 C 154.7 69.8 153.7 68.8 153.7 67.2 Z M 157.1 66.8 C 157.1 65.9 156.6 65.1 155.8 65.1 C 155 65.1 154.5 65.8 154.4 66.8 H 157.1 Z" fill="#ffffff"/>
<path fill-rule="evenodd" clip-rule="evenodd" d="M 102.8 63.8 V 70 H 101.1 V 63.8 H 99.2 V 62.1 H 104.5 V 63.8 H 102.8 Z" fill="#ffffff"/>
<path fill-rule="evenodd" clip-rule="evenodd" d="M 105.6 68.3 H 109.9 C 110.1 68.3 110.3 68.2 110.4 68.1 C 110.5 68 110.6 67.8 110.6 67.6 C 110.6 67.4 110.5 67.2 110.4 67.1 C 110.3 66.9 110.1 66.9 109.9 66.9 H 107.8 C 107.3 66.9 106.9 66.8 106.6 66.7 C 106.3 66.5 106 66.3 105.8 66.1 C 105.6 65.9 105.4 65.6 105.4 65.4 C 105.3 65.1 105.2 64.8 105.2 64.5 C 105.2 64.2 105.3 63.9 105.4 63.6 C 105.5 63.3 105.6 63 105.8 62.8 C 106 62.6 106.3 62.5 106.6 62.3 C 107 62.2 107.4 62.1 107.8 62.1 H 111.7 V 63.8 H 107.6 C 107.4 63.8 107.3 63.9 107.1 64 C 107 64.1 106.9 64.3 106.9 64.5 C 106.9 64.7 107 64.9 107.1 65 C 107.3 65.1 107.4 65.2 107.6 65.2 H 109.7 C 110.5 65.2 111.1 65.4 111.6 65.8 C 112 66.2 112.2 66.8 112.2 67.6 C 112.2 68.4 112 69 111.6 69.4 C 111.1 69.8 110.5 70 109.7 70 H 105.6 V 68.3 Z" fill="#ffffff"/>
<path fill-rule="evenodd" clip-rule="evenodd" d="M 115.4 66.9 C 115.3 66.9 115.1 66.9 115 67.1 C 114.9 67.2 114.8 67.4 114.8 67.6 C 114.8 67.8 114.8 68 115 68.1 C 115.1 68.2 115.3 68.3 115.5 68.3 H 119.6 V 70 H 115.7 C 115.2 70 114.8 69.9 114.5 69.8 C 114.1 69.6 113.9 69.5 113.7 69.2 C 113.5 69 113.3 68.8 113.2 68.5 C 113.1 68.2 113.1 67.9 113.1 67.6 C 113.1 67.3 113.1 67 113.3 66.7 C 113.4 66.4 113.6 66.2 113.9 66 C 113.6 65.8 113.4 65.5 113.2 65.3 C 113.1 65 113.1 64.7 113.1 64.3 C 113.1 63.9 113.2 63.5 113.4 63.2 C 113.6 62.8 113.9 62.5 114.2 62.4 C 114.5 62.2 115 62.1 115.7 62.1 H 119.6 V 63.8 H 115.4 C 115.3 63.8 115.1 63.8 115 64 C 114.9 64.1 114.8 64.3 114.8 64.5 C 114.8 64.7 114.8 64.8 115 65 C 115.1 65.1 115.3 65.2 115.5 65.2 H 119.6 V 66.8 H 115.4 V 66.9 Z" fill="#ffffff"/>
</g>
<defs>
<clipPath id="clip0_283_234">
<rect width="248.6" height="70" fill="white"/>
</clipPath>
</defs>
</svg>
