<svg width="70" height="70" viewBox="0 0 70 70" xmlns="http://www.w3.org/2000/svg">
<g clip-path="url(#clip0_283_234)">
<path fill-rule="evenodd" clip-rule="evenodd" d="M 25.2 27.6 C 25.4 26.2 26.7 25.1 28.1 25.2 C 29.6 25.4 30.7 26.7 30.5 28.1 C 30.4 29.6 29.1 30.7 27.6 30.5 C 26.2 30.4 25.1 29.1 25.2 27.6 Z" fill="#e96824"/>
<path fill-rule="evenodd" clip-rule="evenodd" d="M 27.6 20.9 C 27.7 19.7 28.8 18.7 30.1 18.9 C 31.3 19 32.2 20.1 32.1 21.3 C 32 22.6 30.9 23.5 29.7 23.4 C 28.4 23.3 27.5 22.1 27.6 20.9 Z" fill="#e96824"/>
<path fill-rule="evenodd" clip-rule="evenodd" d="M 31.8 16.2 C 31.9 15.1 32.8 14.3 33.9 14.4 C 35 14.5 35.8 15.5 35.7 16.5 C 35.6 17.6 34.6 18.4 33.5 18.3 C 32.5 18.2 31.7 17.2 31.8 16.2 Z" fill="#e96824"/>
<path fill-rule="evenodd" clip-rule="evenodd" d="M 37 13.5 C 37.1 12.6 37.9 11.9 38.9 11.9 C 39.8 12 40.5 12.9 40.4 13.8 C 40.4 14.8 39.5 15.5 38.6 15.4 C 37.6 15.3 36.9 14.4 37 13.5 Z" fill="#e96824"/>
<path fill-rule="evenodd" clip-rule="evenodd" d="M 42.5 13.4 C 42.6 12.5 43.3 11.9 44.2 12 C 45.1 12.1 45.7 12.8 45.6 13.7 C 45.5 14.6 44.8 15.2 43.9 15.1 C 43 15 42.4 14.3 42.5 13.4 Z" fill="#e96824"/>
<path fill-rule="evenodd" clip-rule="evenodd" d="M 47.1 15.2 C 47.2 14.4 47.9 13.9 48.6 13.9 C 49.4 14 50 14.7 49.9 15.5 C 49.9 16.3 49.2 16.8 48.4 16.8 C 47.6 16.7 47 16 47.1 15.2 Z" fill="#e96824"/>
<path fill-rule="evenodd" clip-rule="evenodd" d="M 50.5 18.2 C 50.6 17.5 51.2 17 51.9 17.1 C 52.6 17.1 53.1 17.8 53 18.5 C 53 19.2 52.4 19.7 51.7 19.6 C 51 19.5 50.5 18.9 50.5 18.2 Z" fill="#e96824"/>
<path fill-rule="evenodd" clip-rule="evenodd" d="M 52.7 21.8 C 52.7 21.2 53.3 20.8 53.8 20.8 C 54.4 20.9 54.9 21.4 54.8 22 C 54.8 22.6 54.2 23 53.6 23 C 53.1 22.9 52.6 22.4 52.7 21.8 Z" fill="#e96824"/>
<path fill-rule="evenodd" clip-rule="evenodd" d="M 53.9 25.6 C 53.9 25.1 54.4 24.7 54.9 24.8 C 55.4 24.8 55.7 25.3 55.7 25.8 C 55.6 26.3 55.2 26.6 54.7 26.6 C 54.2 26.5 53.8 26.1 53.9 25.6 Z" fill="#e96824"/>
<path fill-rule="evenodd" clip-rule="evenodd" d="M 54.2 29.1 C 54.3 28.7 54.6 28.4 55.1 28.4 C 55.5 28.5 55.8 28.8 55.8 29.3 C 55.7 29.7 55.4 30 54.9 30 C 54.5 29.9 54.2 29.6 54.2 29.1 Z" fill="#e96824"/>
<path fill-rule="evenodd" clip-rule="evenodd" d="M 53.9 32.4 C 53.9 32.1 54.3 31.8 54.6 31.8 C 55 31.9 55.3 32.2 55.2 32.6 C 55.2 32.9 54.9 33.2 54.5 33.2 C 54.2 33.1 53.9 32.8 53.9 32.4 Z" fill="#e96824"/>
<path fill-rule="evenodd" clip-rule="evenodd" d="M 53 35.4 C 53 35.1 53.3 34.8 53.6 34.9 C 53.9 34.9 54.1 35.2 54.1 35.5 C 54 35.8 53.8 36 53.5 36 C 53.2 35.9 52.9 35.7 53 35.4 Z" fill="#e96824"/>
<path fill-rule="evenodd" clip-rule="evenodd" d="M 51.8 37.7 C 51.8 37.5 52 37.3 52.3 37.3 C 52.5 37.4 52.7 37.6 52.7 37.8 C 52.6 38.1 52.4 38.3 52.2 38.2 C 51.9 38.2 51.7 38 51.8 37.7 Z" fill="#e96824"/>
<path fill-rule="evenodd" clip-rule="evenodd" d="M 50.2 40 C 50.2 39.8 50.4 39.7 50.6 39.7 C 50.8 39.7 50.9 39.9 50.9 40.1 C 50.9 40.3 50.7 40.5 50.5 40.4 C 50.3 40.4 50.1 40.2 50.2 40 Z" fill="#e96824"/>
<path fill-rule="evenodd" clip-rule="evenodd" d="M 48.4 41.6 C 48.4 41.4 48.6 41.3 48.7 41.3 C 48.9 41.3 49 41.5 49 41.6 C 49 41.8 48.8 41.9 48.7 41.9 C 48.5 41.9 48.4 41.7 48.4 41.6 Z" fill="#e96824"/>
<path fill-rule="evenodd" clip-rule="evenodd" d="M 46.3 43 C 46.3 42.9 46.4 42.8 46.5 42.8 C 46.6 42.8 46.7 42.9 46.7 43 C 46.7 43.1 46.6 43.2 46.5 43.2 C 46.3 43.2 46.3 43.1 46.3 43 Z" fill="#e96824"/>
<path fill-rule="evenodd" clip-rule="evenodd" d="M 43.7 43.7 C 43.7 43.7 43.8 43.6 43.9 43.6 C 44 43.6 44 43.7 44 43.8 C 44 43.8 43.9 43.9 43.8 43.9 C 43.8 43.9 43.7 43.8 43.7 43.7 Z" fill="#e96824"/>
<path fill-rule="evenodd" clip-rule="evenodd" d="M 41.5 43.9 C 41.5 43.8 41.5 43.8 41.6 43.8 C 41.6 43.8 41.7 43.8 41.7 43.9 C 41.7 44 41.6 44 41.6 44 C 41.5 44 41.5 43.9 41.5 43.9 Z" fill="#e96824"/>
<path fill-rule="evenodd" clip-rule="evenodd" d="M 39.2 43.7 C 39.2 43.6 39.2 43.6 39.3 43.6 C 39.3 43.6 39.3 43.6 39.3 43.7 C 39.3 43.7 39.3 43.7 39.3 43.7 C 39.2 43.7 39.2 43.7 39.2 43.7 Z" fill="#e96824"/>
<path fill-rule="evenodd" clip-rule="evenodd" d="M 36.6 42.9 C 36.6 42.9 36.6 42.9 36.7 42.9 C 36.7 42.9 36.7 42.9 36.7 42.9 C 36.7 42.9 36.7 42.9 36.7 42.9 C 36.6 42.9 36.6 42.9 36.6 42.9 Z" fill="#e96824"/>
<path fill-rule="evenodd" clip-rule="evenodd" d="M 30.5 28.2 C 30.4 29.6 29.1 30.7 27.7 30.5 C 26.2 30.4 25.1 29.1 25.3 27.6 C 25.4 26.2 26.7 25.1 28.2 25.3 C 29.6 25.4 30.7 26.7 30.5 28.2 Z" fill="#e96824"/>
<path fill-rule="evenodd" clip-rule="evenodd" d="M 28.2 34.9 C 28.1 36.1 26.9 37 25.7 36.9 C 24.5 36.8 23.5 35.7 23.7 34.5 C 23.8 33.2 24.9 32.3 26.1 32.4 C 27.4 32.5 28.3 33.6 28.2 34.9 Z" fill="#e96824"/>
<path fill-rule="evenodd" clip-rule="evenodd" d="M 24 39.6 C 23.9 40.7 23 41.5 21.9 41.4 C 20.8 41.3 20 40.3 20.1 39.3 C 20.2 38.2 21.2 37.4 22.3 37.5 C 23.3 37.6 24.1 38.6 24 39.6 Z" fill="#e96824"/>
<path fill-rule="evenodd" clip-rule="evenodd" d="M 18.8 42.3 C 18.7 43.2 17.9 43.9 16.9 43.8 C 16 43.8 15.3 42.9 15.3 42 C 15.4 41 16.3 40.3 17.2 40.4 C 18.2 40.5 18.9 41.3 18.8 42.3 Z" fill="#e96824"/>
<path fill-rule="evenodd" clip-rule="evenodd" d="M 13.3 42.4 C 13.2 43.3 12.4 43.9 11.6 43.8 C 10.7 43.7 10.1 43 10.2 42.1 C 10.3 41.2 11 40.6 11.9 40.7 C 12.8 40.8 13.4 41.5 13.3 42.4 Z" fill="#e96824"/>
<path fill-rule="evenodd" clip-rule="evenodd" d="M 8.7 40.6 C 8.6 41.4 7.9 41.9 7.1 41.8 C 6.4 41.8 5.8 41.1 5.9 40.3 C 5.9 39.5 6.6 39 7.4 39 C 8.2 39.1 8.8 39.8 8.7 40.6 Z" fill="#e96824"/>
<path fill-rule="evenodd" clip-rule="evenodd" d="M 5.3 37.6 C 5.2 38.3 4.6 38.8 3.9 38.7 C 3.2 38.6 2.7 38 2.7 37.3 C 2.8 36.6 3.4 36.1 4.1 36.2 C 4.8 36.3 5.3 36.9 5.3 37.6 Z" fill="#e96824"/>
<path fill-rule="evenodd" clip-rule="evenodd" d="M 3.1 34 C 3.1 34.6 2.5 35 1.9 35 C 1.3 34.9 0.9 34.4 1 33.8 C 1 33.2 1.6 32.8 2.1 32.8 C 2.7 32.9 3.2 33.4 3.1 34 Z" fill="#e96824"/>
<path fill-rule="evenodd" clip-rule="evenodd" d="M 1.9 30.2 C 1.9 30.7 1.4 31.1 0.9 31 C 0.4 31 0.1 30.5 0.1 30 C 0.2 29.5 0.6 29.2 1.1 29.2 C 1.6 29.3 1.9 29.7 1.9 30.2 Z" fill="#e96824"/>
<path fill-rule="evenodd" clip-rule="evenodd" d="M 1.6 26.7 C 1.5 27.1 1.1 27.4 0.7 27.4 C 0.3 27.3 0 26.9 0 26.5 C 0.1 26.1 0.4 25.8 0.9 25.8 C 1.3 25.9 1.6 26.2 1.6 26.7 Z" fill="#e96824"/>
<path fill-rule="evenodd" clip-rule="evenodd" d="M 1.9 23.4 C 1.8 23.7 1.5 24 1.1 24 C 0.8 23.9 0.5 23.6 0.5 23.2 C 0.6 22.9 0.9 22.6 1.3 22.6 C 1.6 22.7 1.9 23 1.9 23.4 Z" fill="#e96824"/>
<path fill-rule="evenodd" clip-rule="evenodd" d="M 2.8 20.4 C 2.8 20.7 2.5 20.9 2.2 20.9 C 1.9 20.9 1.7 20.6 1.7 20.3 C 1.8 20 2 19.8 2.3 19.8 C 2.6 19.9 2.8 20.1 2.8 20.4 Z" fill="#e96824"/>
<path fill-rule="evenodd" clip-rule="evenodd" d="M 4 18 C 4 18.3 3.8 18.5 3.5 18.5 C 3.3 18.4 3.1 18.2 3.1 18 C 3.1 17.7 3.4 17.5 3.6 17.6 C 3.9 17.6 4 17.8 4 18 Z" fill="#e96824"/>
<path fill-rule="evenodd" clip-rule="evenodd" d="M 5.6 15.7 C 5.6 15.9 5.4 16.1 5.2 16.1 C 5 16.1 4.9 15.9 4.9 15.7 C 4.9 15.5 5.1 15.3 5.3 15.4 C 5.5 15.4 5.6 15.6 5.6 15.7 Z" fill="#e96824"/>
<path fill-rule="evenodd" clip-rule="evenodd" d="M 7.4 14.2 C 7.4 14.4 7.2 14.5 7 14.5 C 6.9 14.5 6.7 14.3 6.8 14.2 C 6.8 14 6.9 13.9 7.1 13.9 C 7.3 13.9 7.4 14.1 7.4 14.2 Z" fill="#e96824"/>
<path fill-rule="evenodd" clip-rule="evenodd" d="M 9.5 12.8 C 9.5 12.9 9.4 13 9.3 13 C 9.2 13 9.1 12.9 9.1 12.8 C 9.1 12.7 9.2 12.6 9.3 12.6 C 9.5 12.6 9.5 12.7 9.5 12.8 Z" fill="#e96824"/>
<path fill-rule="evenodd" clip-rule="evenodd" d="M 12.1 12.1 C 12.1 12.1 12 12.2 11.9 12.2 C 11.8 12.2 11.8 12.1 11.8 12 C 11.8 11.9 11.9 11.9 11.9 11.9 C 12 11.9 12.1 12 12.1 12.1 Z" fill="#e96824"/>
<path fill-rule="evenodd" clip-rule="evenodd" d="M 14.3 11.9 C 14.3 12 14.3 12 14.2 12 C 14.2 12 14.1 11.9 14.1 11.9 C 14.1 11.8 14.2 11.8 14.2 11.8 C 14.3 11.8 14.3 11.8 14.3 11.9 Z" fill="#e96824"/>
<path fill-rule="evenodd" clip-rule="evenodd" d="M 16.6 12.1 C 16.6 12.2 16.6 12.2 16.5 12.2 C 16.5 12.2 16.5 12.2 16.5 12.1 C 16.5 12.1 16.5 12.1 16.5 12.1 C 16.6 12.1 16.6 12.1 16.6 12.1 Z" fill="#e96824"/>
<path fill-rule="evenodd" clip-rule="evenodd" d="M 19.2 12.9 C 19.2 12.9 19.2 12.9 19.1 12.9 C 19.1 12.9 19.1 12.9 19.1 12.9 C 19.1 12.9 19.1 12.9 19.1 12.9 C 19.2 12.9 19.2 12.9 19.2 12.9 Z" fill="#e96824"/>
<path fill-rule="evenodd" clip-rule="evenodd" d="M 28.1 25.2 C 29.6 25.4 30.7 26.7 30.5 28.1 C 30.4 29.6 29.1 30.7 27.6 30.5 C 26.2 30.4 25.1 29.1 25.2 27.6 C 25.4 26.2 26.7 25.1 28.1 25.2 Z" fill="#e96824"/>
<path fill-rule="evenodd" clip-rule="evenodd" d="M 34.9 27.6 C 36.1 27.7 37 28.8 36.9 30.1 C 36.8 31.3 35.7 32.2 34.4 32.1 C 33.2 32 32.3 30.9 32.4 29.7 C 32.5 28.4 33.6 27.5 34.9 27.6 Z" fill="#e96824"/>
<path fill-rule="evenodd" clip-rule="evenodd" d="M 39.6 31.8 C 40.7 31.9 41.5 32.8 41.4 33.9 C 41.3 35 40.3 35.8 39.3 35.7 C 38.2 35.6 37.4 34.6 37.5 33.5 C 37.6 32.5 38.6 31.7 39.6 31.8 Z" fill="#e96824"/>
<path fill-rule="evenodd" clip-rule="evenodd" d="M 42.3 37 C 43.2 37.1 43.9 37.9 43.8 38.9 C 43.8 39.8 42.9 40.5 42 40.4 C 41 40.4 40.3 39.5 40.4 38.6 C 40.5 37.6 41.3 36.9 42.3 37 Z" fill="#e96824"/>
<path fill-rule="evenodd" clip-rule="evenodd" d="M 42.4 42.5 C 43.3 42.6 43.9 43.3 43.8 44.2 C 43.7 45.1 43 45.7 42.1 45.6 C 41.2 45.5 40.6 44.8 40.7 43.9 C 40.8 43 41.5 42.4 42.4 42.5 Z" fill="#e96824"/>
<path fill-rule="evenodd" clip-rule="evenodd" d="M 40.6 47.1 C 41.4 47.2 41.9 47.9 41.8 48.6 C 41.8 49.4 41.1 50 40.3 49.9 C 39.5 49.9 39 49.2 39 48.4 C 39.1 47.6 39.8 47 40.6 47.1 Z" fill="#e96824"/>
<path fill-rule="evenodd" clip-rule="evenodd" d="M 37.6 50.5 C 38.3 50.6 38.8 51.2 38.7 51.9 C 38.6 52.6 38 53.1 37.3 53 C 36.6 53 36.1 52.4 36.2 51.7 C 36.3 51 36.9 50.5 37.6 50.5 Z" fill="#e96824"/>
<path fill-rule="evenodd" clip-rule="evenodd" d="M 34 52.7 C 34.6 52.7 35 53.3 35 53.8 C 34.9 54.4 34.4 54.9 33.8 54.8 C 33.2 54.8 32.8 54.2 32.8 53.6 C 32.9 53.1 33.4 52.6 34 52.7 Z" fill="#e96824"/>
<path fill-rule="evenodd" clip-rule="evenodd" d="M 30.2 53.9 C 30.7 53.9 31.1 54.4 31 54.9 C 31 55.4 30.5 55.7 30 55.7 C 29.5 55.6 29.2 55.2 29.2 54.7 C 29.3 54.2 29.7 53.8 30.2 53.9 Z" fill="#e96824"/>
<path fill-rule="evenodd" clip-rule="evenodd" d="M 26.7 54.2 C 27.1 54.3 27.4 54.6 27.4 55.1 C 27.3 55.5 27 55.8 26.5 55.8 C 26.1 55.7 25.8 55.4 25.8 54.9 C 25.9 54.5 26.2 54.2 26.7 54.2 Z" fill="#e96824"/>
<path fill-rule="evenodd" clip-rule="evenodd" d="M 23.4 53.9 C 23.7 53.9 24 54.3 24 54.6 C 23.9 55 23.6 55.3 23.2 55.2 C 22.9 55.2 22.6 54.9 22.6 54.5 C 22.7 54.2 23 53.9 23.4 53.9 Z" fill="#e96824"/>
<path fill-rule="evenodd" clip-rule="evenodd" d="M 20.4 53 C 20.7 53 20.9 53.3 20.9 53.6 C 20.9 53.9 20.6 54.1 20.3 54.1 C 20 54 19.8 53.8 19.8 53.5 C 19.9 53.2 20.1 52.9 20.4 53 Z" fill="#e96824"/>
<path fill-rule="evenodd" clip-rule="evenodd" d="M 18 51.8 C 18.3 51.8 18.5 52 18.5 52.3 C 18.4 52.5 18.2 52.7 18 52.7 C 17.7 52.6 17.5 52.4 17.6 52.2 C 17.6 51.9 17.8 51.7 18 51.8 Z" fill="#e96824"/>
<path fill-rule="evenodd" clip-rule="evenodd" d="M 15.8 50.2 C 15.9 50.2 16.1 50.4 16.1 50.6 C 16.1 50.8 15.9 50.9 15.7 50.9 C 15.5 50.9 15.3 50.7 15.4 50.5 C 15.4 50.3 15.6 50.1 15.8 50.2 Z" fill="#e96824"/>
<path fill-rule="evenodd" clip-rule="evenodd" d="M 14.2 48.4 C 14.4 48.4 14.5 48.6 14.5 48.7 C 14.5 48.9 14.3 49 14.2 49 C 14 49 13.9 48.8 13.9 48.7 C 13.9 48.5 14.1 48.4 14.2 48.4 Z" fill="#e96824"/>
<path fill-rule="evenodd" clip-rule="evenodd" d="M 12.8 46.3 C 12.9 46.3 13 46.4 13 46.5 C 13 46.6 12.9 46.7 12.8 46.7 C 12.7 46.7 12.6 46.6 12.6 46.5 C 12.6 46.3 12.7 46.3 12.8 46.3 Z" fill="#e96824"/>
<path fill-rule="evenodd" clip-rule="evenodd" d="M 12.1 43.7 C 12.1 43.7 12.2 43.8 12.2 43.9 C 12.2 44 12.1 44 12 44 C 11.9 44 11.9 43.9 11.9 43.8 C 11.9 43.8 12 43.7 12.1 43.7 Z" fill="#e96824"/>
<path fill-rule="evenodd" clip-rule="evenodd" d="M 11.9 41.5 C 11.9 41.5 12 41.5 12 41.6 C 12 41.6 11.9 41.7 11.9 41.7 C 11.8 41.7 11.8 41.6 11.8 41.6 C 11.8 41.5 11.8 41.5 11.9 41.5 Z" fill="#e96824"/>
<path fill-rule="evenodd" clip-rule="evenodd" d="M 12.1 39.2 C 12.2 39.2 12.2 39.2 12.2 39.3 C 12.2 39.3 12.2 39.3 12.1 39.3 C 12.1 39.3 12.1 39.3 12.1 39.3 C 12.1 39.2 12.1 39.2 12.1 39.2 Z" fill="#e96824"/>
<path fill-rule="evenodd" clip-rule="evenodd" d="M 12.9 36.6 C 12.9 36.6 12.9 36.6 12.9 36.7 C 12.9 36.7 12.9 36.7 12.9 36.7 C 12.9 36.7 12.9 36.7 12.9 36.7 C 12.9 36.6 12.9 36.6 12.9 36.6 Z" fill="#e96824"/>
<path fill-rule="evenodd" clip-rule="evenodd" d="M 27.6 30.5 C 26.2 30.4 25.1 29.1 25.2 27.6 C 25.4 26.2 26.7 25.1 28.1 25.3 C 29.6 25.4 30.7 26.7 30.5 28.2 C 30.4 29.6 29.1 30.7 27.6 30.5 Z" fill="#e96824"/>
<path fill-rule="evenodd" clip-rule="evenodd" d="M 20.9 28.2 C 19.7 28.1 18.7 26.9 18.9 25.7 C 19 24.5 20.1 23.5 21.3 23.7 C 22.6 23.8 23.5 24.9 23.4 26.1 C 23.3 27.4 22.1 28.3 20.9 28.2 Z" fill="#e96824"/>
<path fill-rule="evenodd" clip-rule="evenodd" d="M 16.2 24 C 15.1 23.9 14.3 23 14.4 21.9 C 14.5 20.8 15.5 20 16.5 20.1 C 17.6 20.2 18.4 21.2 18.3 22.3 C 18.2 23.3 17.2 24.1 16.2 24 Z" fill="#e96824"/>
<path fill-rule="evenodd" clip-rule="evenodd" d="M 13.5 18.8 C 12.6 18.7 11.9 17.8 11.9 16.9 C 12 16 12.9 15.3 13.8 15.4 C 14.8 15.4 15.5 16.3 15.4 17.2 C 15.3 18.2 14.4 18.9 13.5 18.8 Z" fill="#e96824"/>
<path fill-rule="evenodd" clip-rule="evenodd" d="M 13.4 13.3 C 12.5 13.2 11.9 12.5 12 11.6 C 12.1 10.7 12.8 10.1 13.7 10.2 C 14.6 10.3 15.2 11 15.1 11.9 C 15 12.8 14.3 13.4 13.4 13.3 Z" fill="#e96824"/>
<path fill-rule="evenodd" clip-rule="evenodd" d="M 15.2 8.7 C 14.4 8.6 13.9 7.9 13.9 7.1 C 14 6.4 14.7 5.8 15.5 5.9 C 16.3 5.9 16.8 6.6 16.8 7.4 C 16.7 8.2 16 8.8 15.2 8.7 Z" fill="#e96824"/>
<path fill-rule="evenodd" clip-rule="evenodd" d="M 18.2 5.3 C 17.5 5.2 17 4.6 17.1 3.9 C 17.1 3.2 17.8 2.7 18.5 2.7 C 19.2 2.8 19.7 3.4 19.6 4.1 C 19.5 4.8 18.9 5.3 18.2 5.3 Z" fill="#e96824"/>
<path fill-rule="evenodd" clip-rule="evenodd" d="M 21.8 3.1 C 21.2 3.1 20.8 2.5 20.8 1.9 C 20.9 1.3 21.4 0.9 22 1 C 22.6 1 23 1.6 23 2.1 C 22.9 2.7 22.4 3.2 21.8 3.1 Z" fill="#e96824"/>
<path fill-rule="evenodd" clip-rule="evenodd" d="M 25.6 1.9 C 25.1 1.9 24.7 1.4 24.8 0.9 C 24.8 0.4 25.3 0.1 25.8 0.1 C 26.3 0.2 26.6 0.6 26.6 1.1 C 26.5 1.6 26.1 1.9 25.6 1.9 Z" fill="#e96824"/>
<path fill-rule="evenodd" clip-rule="evenodd" d="M 29.1 1.6 C 28.7 1.5 28.4 1.1 28.4 0.7 C 28.5 0.3 28.8 0 29.3 0 C 29.7 0.1 30 0.4 30 0.9 C 29.9 1.3 29.6 1.6 29.1 1.6 Z" fill="#e96824"/>
<path fill-rule="evenodd" clip-rule="evenodd" d="M 32.4 1.9 C 32.1 1.8 31.8 1.5 31.8 1.1 C 31.9 0.8 32.2 0.5 32.6 0.5 C 32.9 0.6 33.2 0.9 33.2 1.3 C 33.1 1.6 32.8 1.9 32.4 1.9 Z" fill="#e96824"/>
<path fill-rule="evenodd" clip-rule="evenodd" d="M 35.4 2.8 C 35.1 2.8 34.8 2.5 34.9 2.2 C 34.9 1.9 35.2 1.7 35.5 1.7 C 35.8 1.8 36 2 36 2.3 C 35.9 2.6 35.7 2.8 35.4 2.8 Z" fill="#e96824"/>
<path fill-rule="evenodd" clip-rule="evenodd" d="M 37.7 4 C 37.5 4 37.3 3.8 37.3 3.5 C 37.4 3.3 37.6 3.1 37.8 3.1 C 38.1 3.1 38.3 3.4 38.2 3.6 C 38.2 3.9 38 4 37.7 4 Z" fill="#e96824"/>
<path fill-rule="evenodd" clip-rule="evenodd" d="M 40 5.6 C 39.8 5.6 39.7 5.4 39.7 5.2 C 39.7 5 39.9 4.9 40.1 4.9 C 40.3 4.9 40.5 5.1 40.4 5.3 C 40.4 5.5 40.2 5.6 40 5.6 Z" fill="#e96824"/>
<path fill-rule="evenodd" clip-rule="evenodd" d="M 41.6 7.4 C 41.4 7.3 41.3 7.2 41.3 7 C 41.3 6.9 41.5 6.7 41.6 6.8 C 41.8 6.8 41.9 6.9 41.9 7.1 C 41.9 7.3 41.7 7.4 41.6 7.4 Z" fill="#e96824"/>
<path fill-rule="evenodd" clip-rule="evenodd" d="M 43 9.5 C 42.9 9.5 42.8 9.4 42.8 9.3 C 42.8 9.2 42.9 9.1 43 9.1 C 43.1 9.1 43.2 9.2 43.2 9.3 C 43.2 9.4 43.1 9.5 43 9.5 Z" fill="#e96824"/>
<path fill-rule="evenodd" clip-rule="evenodd" d="M 43.7 12.1 C 43.7 12.1 43.6 12 43.6 11.9 C 43.6 11.8 43.7 11.8 43.8 11.8 C 43.8 11.8 43.9 11.9 43.9 11.9 C 43.9 12 43.8 12.1 43.7 12.1 Z" fill="#e96824"/>
<path fill-rule="evenodd" clip-rule="evenodd" d="M 43.9 14.3 C 43.8 14.3 43.8 14.3 43.8 14.2 C 43.8 14.2 43.8 14.1 43.9 14.1 C 44 14.1 44 14.2 44 14.2 C 44 14.3 43.9 14.3 43.9 14.3 Z" fill="#e96824"/>
<path fill-rule="evenodd" clip-rule="evenodd" d="M 43.7 16.6 C 43.6 16.6 43.6 16.6 43.6 16.5 C 43.6 16.5 43.6 16.5 43.7 16.5 C 43.7 16.5 43.7 16.5 43.7 16.5 C 43.7 16.6 43.7 16.6 43.7 16.6 Z" fill="#e96824"/>
<path fill-rule="evenodd" clip-rule="evenodd" d="M 42.9 19.2 C 42.9 19.2 42.9 19.2 42.9 19.1 C 42.9 19.1 42.9 19.1 42.9 19.1 C 42.9 19.1 42.9 19.1 42.9 19.1 C 42.9 19.2 42.9 19.2 42.9 19.2 Z" fill="#e96824"/>
</g>
<defs>
<clipPath id="clip0_283_234">
<rect width="248.6" height="70" fill="white"/>
</clipPath>
</defs>
</svg>
